<?xml version="1.0" encoding="UTF-8"?>
<svg version="1.1" xmlns="http://www.w3.org/2000/svg" width="512" height="512">
<path d="M0 0 C7.93778453 5.28066332 14.56305336 13.42349233 21.29356384 20.1665802 C22.64010457 21.51196767 23.98686305 22.85713725 25.33381945 24.20210856 C29.02157445 27.8856987 32.70621586 31.57238946 36.39033759 35.25961292 C40.36868953 39.24023018 44.34992122 43.21796548 48.33078003 47.19607544 C56.12202314 54.98287475 63.91056384 62.77237164 71.69813501 70.56284306 C78.0242842 76.89125076 84.35140891 83.21868158 90.67923164 89.54541588 C91.5798514 90.44588241 92.48047117 91.34634893 93.40838243 92.27410233 C95.23790719 94.10330736 97.0674342 95.93251016 98.89696342 97.76171073 C115.55641927 114.41839734 132.21305356 131.07790227 148.86850393 147.73859382 C164.07956245 162.95440256 179.29321077 178.16761732 194.5090332 193.37866211 C211.60648777 210.47076615 228.70232144 227.56448811 245.79556376 244.66080493 C247.61619997 246.4817597 249.43683829 248.30271238 251.25747871 250.12366295 C252.15331394 251.01965245 253.04914916 251.91564195 253.97213091 252.83878264 C260.29720298 259.16471959 266.62343769 265.48949243 272.95011711 271.81382179 C280.65128681 279.51219373 288.35068622 287.21233085 296.04778635 294.91477177 C299.9777497 298.84737176 303.9085241 302.77915218 307.84145164 306.70878792 C311.43623686 310.30060968 315.02873504 313.89470199 318.61936433 317.49067815 C319.92377787 318.79621561 321.22904922 320.10089662 322.53522896 321.404667 C324.3003381 323.16676788 326.06238765 324.93187072 327.82365322 326.69781208 C328.59840093 327.46904804 328.59840093 327.46904804 329.38880011 328.25586453 C332.77068062 331.65591145 334.16574773 333.52384232 334.375 338.3125 C334.35031361 342.14506165 334.13918768 342.82418398 331.625 346 C327.34459886 349.26125801 324.23440619 349.13955033 319.01486206 349.12025452 C317.76273176 349.12153615 317.76273176 349.12153615 316.48530591 349.12284368 C313.6723114 349.12449824 310.85937578 349.11897749 308.04638672 349.11352539 C306.03626507 349.11324349 304.02614332 349.11340131 302.01602173 349.1139679 C296.5452313 349.11425575 291.07446263 349.10836096 285.60367727 349.10139394 C279.89147647 349.0951584 274.17927521 349.09455644 268.46707153 349.09336853 C257.6440137 349.09025581 246.82096592 349.08204321 235.99791253 349.07201904 C223.67887576 349.06085608 211.35983851 349.05534699 199.04079795 349.05032361 C173.69385972 349.03986055 148.34693042 349.02226225 123 349 C122.70810791 349.61480225 122.41621582 350.22960449 122.11547852 350.86303711 C120.73330154 353.51092397 118.97604794 355.38013915 116.9375 357.5625 C113.66981527 361.12296928 110.53520807 364.7393292 107.5 368.5 C103.88967558 372.96276213 100.11572071 377.22719533 96.25 381.46875 C93.92137947 384.0884481 91.70437053 386.7751531 89.5 389.5 C85.88967558 393.96276213 82.11572071 398.22719533 78.25 402.46875 C75.92137947 405.0884481 73.70437053 407.7751531 71.5 410.5 C67.88967558 414.96276213 64.11572071 419.22719533 60.25 423.46875 C57.92137947 426.0884481 55.70437053 428.7751531 53.5 431.5 C49.88967558 435.96276213 46.11572071 440.22719533 42.25 444.46875 C39.92137947 447.0884481 37.70437053 449.7751531 35.5 452.5 C31.8873417 456.96564707 28.11106455 461.23284615 24.2421875 465.4765625 C21.95484096 468.05082358 19.78451729 470.69289489 17.625 473.375 C14.22288359 477.57514372 10.704702 481.63375862 7.0625 485.625 C6.5895752 486.14626465 6.11665039 486.6675293 5.62939453 487.20458984 C2.38563093 490.726424 1.104985 491.8895015 -3.75 492.375 C-7.06751516 492.34478584 -8.85116622 491.77284903 -11.4375 489.6875 C-15.45923936 485.46957823 -15.14437196 481.72930488 -15.13142776 476.21095467 C-15.1334804 475.40532524 -15.13553303 474.59969582 -15.13764787 473.76965338 C-15.14334057 471.04711426 -15.14185783 468.32462536 -15.14044189 465.6020813 C-15.14302422 463.63965003 -15.14603701 461.67721928 -15.1494453 459.71478927 C-15.15753396 454.30406863 -15.1593059 448.89336123 -15.16004276 443.48263526 C-15.16189005 437.65431342 -15.16943568 431.82599851 -15.17617798 425.99768066 C-15.18977452 413.24586409 -15.19578792 400.49405065 -15.20018864 387.74222803 C-15.20294852 379.78529322 -15.20718538 371.82835962 -15.21169281 363.87142563 C-15.22388662 341.8558135 -15.23422149 319.84020231 -15.2375679 297.82458687 C-15.23778954 296.40062749 -15.23801132 294.97666811 -15.23823325 293.55270874 C-15.23845389 292.12528081 -15.23867438 290.69785289 -15.2388947 289.27042496 C-15.23933726 286.40668305 -15.23978437 283.54294113 -15.24023438 280.67919922 C-15.24034377 279.96915655 -15.24045316 279.25911388 -15.24056586 278.52755477 C-15.24419786 255.49567703 -15.26012328 232.46383073 -15.28342474 209.43196503 C-15.308006 185.090681 -15.32173992 160.74941494 -15.32293582 136.40811813 C-15.32378795 123.13546646 -15.32964118 109.86285423 -15.34775543 96.59021378 C-15.36312193 85.29084292 -15.36829731 73.99152598 -15.36001733 62.69214667 C-15.35609872 56.92350672 -15.3570993 51.15497545 -15.37107468 45.38634872 C-15.38374104 40.10997041 -15.38268043 34.83378323 -15.37048396 29.55740546 C-15.36851431 27.64422725 -15.37166334 25.73103583 -15.38032833 23.81787623 C-15.39133124 21.2252583 -15.38399698 18.63332569 -15.3719368 16.04072762 C-15.37953199 15.2910518 -15.38712718 14.54137598 -15.39495254 13.76898271 C-15.33965619 8.29494451 -14.00033241 5.14850518 -10.3125 1.1875 C-6.81340792 -0.60933107 -3.76619807 -0.93260013 0 0 Z " fill="#0BD2F4" transform="translate(86,10)"/>
</svg>
